<svg xmlns="http://www.w3.org/2000/svg" xmlns:xlink="http://www.w3.org/1999/xlink" style="display: none;">
	<symbol id="logo" viewBox="0 0 110 21">
    	<path fill-rule="evenodd" clip-rule="evenodd" d="M108.332 14.1591C109.253 14.1591 110 14.9168 110 15.8513C110 16.7859 109.253 17.5433 108.332 17.5433C107.41 17.5433 106.663 16.7859 106.663 15.8513C106.663 14.9168 107.41 14.1591 108.332 14.1591ZM8.14444 13.3649C8.60224 12.583 8.60224 11.6545 8.60224 10.726C7.46979 10.9215 6.14436 11.1658 5.01191 11.4346C3.85537 11.679 2.86749 12.2409 2.86749 13.2674C2.86749 14.3179 3.75899 15.0754 4.96372 15.0754C6.36121 15.0754 7.51798 14.3912 8.14444 13.3649ZM9.80697 5.00805C11.0601 6.08318 11.4695 7.59813 11.4695 9.23526V17.1768H8.93956V15.4421C7.66254 17.0304 6.33712 17.5435 4.28907 17.5435C1.68707 17.5435 0 15.955 0 13.4871C0 11.7769 0.650556 10.5061 2.28921 9.72395C3.92765 8.96647 6.60216 8.69769 8.57792 8.40448C8.40948 7.15853 7.46979 6.40083 5.85544 6.40083C4.55411 6.40083 3.39757 6.84065 2.48197 7.7694L0.771249 5.8144C2.14443 4.39718 3.83127 3.61527 6.09617 3.61527C7.49388 3.61527 8.89137 4.2017 9.80697 5.00805ZM21.9991 13.8292C22.6496 13.0719 22.9388 11.8253 22.9388 10.5793C22.9388 9.33295 22.6496 8.11121 21.9991 7.30509C21.4206 6.59626 20.5293 6.25418 19.5414 6.25418C18.4088 6.25418 17.4691 6.62092 16.8667 7.525C16.3366 8.28226 16.0959 9.38204 16.0959 10.5793C16.0959 11.7522 16.2887 12.8762 16.8187 13.6339C17.4211 14.5378 18.4331 14.9045 19.4451 14.9045C20.4811 14.9045 21.3726 14.5622 21.9991 13.8292ZM22.6015 4.71479V0H25.5171V17.1767H22.9629V16.1505C21.9268 17.1036 20.5293 17.5435 19.0111 17.5435C17.2763 17.5435 15.5897 16.786 14.5054 15.4421C13.4212 14.0491 13.0116 12.3629 13.0116 10.5793C13.0116 8.77117 13.4935 7.03609 14.5054 5.71661C15.6138 4.32383 17.3245 3.61523 19.1077 3.61523C20.4088 3.61523 21.6136 4.03062 22.6015 4.71479ZM35.1134 13.3649C35.5712 12.583 35.5712 11.6545 35.5712 10.726C34.4388 10.9215 33.1133 11.1658 31.9809 11.4346C30.8246 11.679 29.8365 12.2409 29.8365 13.2674C29.8365 14.3179 30.728 15.0754 31.9327 15.0754C33.3302 15.0754 34.4869 14.3912 35.1134 13.3649ZM36.7762 5.00805C38.0291 6.08318 38.4387 7.59813 38.4387 9.23526V17.1768H35.9085V15.4421C34.6315 17.0304 33.3063 17.5435 31.258 17.5435C28.656 17.5435 26.9692 15.955 26.9692 13.4871C26.9692 11.7769 27.6197 10.5061 29.2582 9.72395C30.8966 8.96647 33.5714 8.69769 35.5471 8.40448C35.3784 7.15853 34.4388 6.40083 32.8244 6.40083C31.5231 6.40083 30.3665 6.84065 29.4509 7.7694L27.7402 5.8144C29.1136 4.39718 30.8005 3.61527 33.0651 3.61527C34.4629 3.61527 35.8603 4.2017 36.7762 5.00805ZM48.6367 13.6339C49.1668 12.8762 49.3596 11.7522 49.3596 10.5794C49.3596 9.38206 49.1186 8.28228 48.5885 7.52503C47.9862 6.62094 47.0465 6.2542 45.9138 6.2542C44.9261 6.2542 44.0346 6.59628 43.4564 7.30511C42.8058 8.11124 42.5167 9.33297 42.5167 10.5794C42.5167 11.8253 42.8058 13.0719 43.4564 13.8292C44.0826 14.5622 44.9741 14.9045 46.0104 14.9045C47.0224 14.9045 48.0343 14.5378 48.6367 13.6339ZM46.3477 3.61525C48.1305 3.61525 49.8414 4.32386 50.95 5.71664C51.962 7.03611 52.4439 8.7712 52.4439 10.5794C52.4439 12.3629 52.0343 14.0491 50.95 15.4421C49.8655 16.7858 48.1789 17.5435 46.4439 17.5435C45.0946 17.5435 43.8417 17.1767 42.854 16.4437V20.6425H39.9383V3.98177H42.5167V4.98359C43.5525 4.12838 44.9018 3.61525 46.3477 3.61525ZM56.869 2.22134e-05V3.98177H60.7V6.72268H56.869V11.6298C56.869 12.6563 56.8206 13.4871 57.134 14.0002C57.4473 14.5378 58.0253 14.7577 58.5556 14.8066C59.2062 14.8554 60.0013 14.8066 60.7 14.7091V17.1767C59.7119 17.4455 58.0737 17.4455 57.134 17.2747C55.9532 17.0792 55.1821 16.6638 54.5077 15.6129C53.8569 14.5867 53.9776 13.2916 53.9776 11.7769V6.27863V3.98177V2.22134e-05H56.869ZM70.049 13.3649C70.507 12.583 70.507 11.6545 70.507 10.726C69.3743 10.9215 68.0491 11.1658 66.9167 11.4346C65.7601 11.679 64.7722 12.2409 64.7722 13.2674C64.7722 14.3179 65.6635 15.0754 66.8683 15.0754C68.266 15.0754 69.4227 14.3912 70.049 13.3649ZM71.7117 5.00805C72.9646 6.08318 73.3743 7.59813 73.3743 9.23526V17.1768H70.8443V15.4421C69.5673 17.0304 68.2419 17.5435 66.1936 17.5435C63.5916 17.5435 61.9048 15.955 61.9048 13.4871C61.9048 11.7769 62.5553 10.5061 64.194 9.72395C65.8324 8.96647 68.5069 8.69769 70.4827 8.40448C70.314 7.15853 69.3743 6.40083 67.76 6.40083C66.4586 6.40083 65.3023 6.84065 64.3865 7.7694L62.676 5.8144C64.0492 4.39718 65.736 3.61527 68.0009 3.61527C69.3984 3.61527 70.7959 4.2017 71.7117 5.00805ZM83.6345 13.6339C84.1646 12.8762 84.3574 11.7522 84.3574 10.5794C84.3574 9.38206 84.1164 8.28228 83.5863 7.52503C82.9837 6.62094 82.0443 6.2542 80.9116 6.2542C79.9239 6.2542 79.0322 6.59628 78.4539 7.30511C77.8034 8.11124 77.5142 9.33297 77.5142 10.5794C77.5142 11.8253 77.8034 13.0719 78.4539 13.8292C79.0804 14.5622 79.9719 14.9045 81.0082 14.9045C82.0202 14.9045 83.0321 14.5378 83.6345 13.6339ZM81.3453 3.61525C83.1285 3.61525 84.8392 4.32386 85.9478 5.71664C86.9596 7.03611 87.4415 8.7712 87.4415 10.5794C87.4415 12.3629 87.0321 14.0491 85.9478 15.4421C84.8631 16.7858 83.1765 17.5435 81.4417 17.5435C79.9239 17.5435 78.5503 17.1037 77.5142 16.1749V17.1767H74.9361V2.22134e-05H77.8518V4.71481C78.8395 4.03064 80.0442 3.61525 81.3453 3.61525ZM88.9763 17.1767V0H91.8679V17.1767H88.9763ZM96.5422 9.08876H102.975C102.927 8.40459 102.759 7.81815 102.373 7.28059C101.795 6.54755 100.831 6.18103 99.8432 6.18103C98.8796 6.18103 97.9397 6.49868 97.241 7.37833C96.8554 7.89146 96.6384 8.45346 96.5422 9.08876ZM99.8432 3.61516C101.747 3.61516 103.289 4.25046 104.47 5.69233C105.722 7.20729 106.06 9.1865 105.891 11.4103H96.494C96.5663 12.192 96.7591 12.9741 97.2169 13.5603C97.8192 14.3669 98.783 14.782 99.8432 14.782C100.638 14.782 101.313 14.5866 101.843 14.1714C102.373 13.7558 102.687 13.3406 102.879 12.9006L105.747 13.7804C105.289 14.88 104.47 15.8818 103.457 16.5416C102.47 17.1769 101.192 17.5434 99.9877 17.5434C98.0604 17.5434 96.0842 16.7859 94.9279 15.3443C93.8677 14.0246 93.3615 12.3874 93.3615 10.7261C93.3615 8.84441 93.8677 7.08489 94.9279 5.79007C96.1085 4.34842 97.9156 3.61516 99.8432 3.61516Z" fill="currentColor"/>
	</symbol>

	<symbol id="arrow-btn" viewBox="0 0 12 12" fill="none" xmlns="http://www.w3.org/2000/svg">
		<path fill-rule="evenodd" clip-rule="evenodd" d="M8.1557 4.84226L4.40913 1.03219L5.49752 0L10.4758 5.06266L11.0017 5.59743L10.4575 6.11352L5.30205 11.0027L4.25034 9.93317L8.05072 6.32905L0.00872635 6.35941L0.00195312 4.87304L8.1557 4.84226Z" fill="currentColor"/>
	</symbol>

  	<symbol id="arrow-scroll" viewBox="0 0 22 22" fill="none" xmlns="http://www.w3.org/2000/svg">
		<path fill-rule="evenodd" clip-rule="evenodd" d="M10.4395 19.1517L1.03524 9.88965L0.00390625 10.9788L10.6597 21.4735L11.1941 21.9998L11.7097 21.4552L22.0004 10.5871L20.9317 9.53457L11.9251 19.0466L11.9968 0.00686116L10.5116 0L10.4395 19.1517Z" fill="white"/>
	</symbol>

	<symbol id="linkedin" viewBox="0 0 16 16" fill="none" xmlns="http://www.w3.org/2000/svg">
    	<path d="M15.6493 15.6533V15.6526H15.6531V10.0391C15.6531 7.29292 15.0619 5.17749 11.8514 5.17749C10.3081 5.17749 9.27234 6.02443 8.84951 6.82736H8.80487V5.43387H5.76086V15.6526H8.93051V10.5927C8.93051 9.2604 9.18306 7.97213 10.8329 7.97213C12.4586 7.97213 12.4828 9.49254 12.4828 10.6781V15.6533H15.6493Z" fill="currentColor"/>
    	<path d="M0.599487 5.43457H3.77296V15.6533H0.599487V5.43457Z" fill="currentColor"/>
    	<path d="M2.18493 0.346924C1.17027 0.346924 0.346924 1.17027 0.346924 2.18493C0.346924 3.1996 1.17027 4.04016 2.18493 4.04016C3.1996 4.04016 4.02294 3.1996 4.02294 2.18493C4.02231 1.17027 3.19896 0.346924 2.18493 0.346924V0.346924Z" fill="currentColor"/>
	</symbol>

	<symbol id="facebook" viewBox="0 0 8 15" fill="none" xmlns="http://www.w3.org/2000/svg">
		<path d="M5.88777 2.9524H7.17267V0.714351C6.95099 0.683854 6.18862 0.615234 5.30074 0.615234C3.44817 0.615234 2.17911 1.78059 2.17911 3.92246V5.89366H0.134766V8.39563H2.17911V14.691H4.68556V8.39622H6.64721L6.95862 5.89425H4.68498V4.17055C4.68556 3.4474 4.88026 2.9524 5.88777 2.9524Z" fill="currentColor"/>
	</symbol>
	
	<symbol id="instagram" viewBox="0 0 14 14" fill="none" xmlns="http://www.w3.org/2000/svg">
		<path fill-rule="evenodd" clip-rule="evenodd" d="M9.89851 3.16699C9.89851 3.72571 10.3514 4.17867 10.9102 4.17867C11.469 4.17867 11.9219 3.72571 11.9219 3.16699C11.9219 2.60824 11.469 2.15527 10.9102 2.15527C10.3514 2.15527 9.89851 2.60824 9.89851 3.16699ZM5.01855 6.99283C5.01855 5.999 5.82421 5.19336 6.81802 5.19336C7.81182 5.19336 8.61748 5.999 8.61748 6.99283C8.61748 7.98664 7.81182 8.79229 6.81802 8.79229C5.82421 8.79229 5.01855 7.98664 5.01855 6.99283ZM6.8184 10.546C4.85625 10.546 3.26562 8.95535 3.26562 6.9932C3.26562 5.03105 4.85625 3.44043 6.8184 3.44043C8.78055 3.44043 10.3712 5.03105 10.3712 6.9932C10.3712 8.95535 8.78055 10.546 6.8184 10.546ZM12.4916 1.32157C12.2101 1.03995 11.9419 0.865532 11.5663 0.719549C11.2827 0.609313 10.8565 0.478222 10.0718 0.442416C9.22319 0.403703 8.96864 0.395508 6.8197 0.395508C4.67075 0.395508 4.41621 0.403703 3.56754 0.442416C2.78287 0.478222 2.35673 0.609313 2.07314 0.719549C1.69746 0.865532 1.42937 1.03995 1.14775 1.32157C0.86612 1.6032 0.691704 1.87132 0.545691 2.24697C0.435485 2.53056 0.304394 2.95673 0.268588 3.7414C0.229875 4.59004 0.22168 4.84458 0.22168 6.99353C0.22168 9.1425 0.229875 9.39702 0.268588 10.2457C0.304394 11.0304 0.435485 11.4565 0.545691 11.7401C0.691704 12.1158 0.86612 12.3839 1.14775 12.6655C1.42937 12.9471 1.69746 13.1215 2.07314 13.2675C2.35673 13.3777 2.78287 13.5089 3.56757 13.5447C4.41609 13.5834 4.67061 13.5916 6.8197 13.5916C8.96879 13.5916 9.22331 13.5834 10.0718 13.5447C10.8565 13.5089 11.2827 13.3777 11.5663 13.2675C11.9419 13.1215 12.2101 12.9471 12.4917 12.6655C12.7733 12.3839 12.9477 12.1158 13.0937 11.7401C13.2039 11.4565 13.335 11.0304 13.3708 10.2457C13.4095 9.39702 13.4177 9.1425 13.4177 6.99353C13.4177 4.84458 13.4095 4.59004 13.3708 3.7414C13.335 2.95673 13.2039 2.53056 13.0937 2.24697C12.9477 1.87132 12.7733 1.6032 12.4916 1.32157Z" fill="white"/>
	</symbol>
</svg>
