<svg width="67" height="34" viewBox="0 0 67 34" fill="none" xmlns="http://www.w3.org/2000/svg">
<path d="M24.8361 27V1.8H16.4481C12.5121 1.8 9.29608 3 6.80008 5.4C4.30408 7.776 3.05608 10.776 3.05608 14.4C3.05608 18 4.31608 21 6.83608 23.4C9.33208 25.8 12.5361 27 16.4481 27H24.8361ZM22.9641 25.272H16.4481C13.0161 25.272 10.2561 24.24 8.16808 22.176C6.05608 20.112 5.00008 17.52 5.00008 14.4C5.00008 11.328 6.05608 8.748 8.16808 6.66C10.2561 4.572 13.0161 3.528 16.4481 3.528H22.9641V25.272Z" fill="white"/>
<path d="M37.6159 27.18L28.4719 1.8H30.5599L38.4799 24.228L45.8599 1.728H47.2999L54.6799 24.228L62.5999 1.8H64.5439L55.3999 27.18H53.8879L46.5079 5.292L39.1279 27.18H37.6159Z" fill="white"/>
</svg>
