<svg width="147" height="335" viewBox="0 0 147 335" fill="none" xmlns="http://www.w3.org/2000/svg">
<path d="M74.0887 155.376H73.3877C66.5737 155.376 60.8877 161.062 60.8877 167.876C60.8877 174.69 66.5737 180.376 73.3877 180.376H74.0887C80.9027 180.376 86.5887 174.69 86.5887 167.876C86.5887 161.062 80.8987 155.376 74.0887 155.376Z" fill="black"/>
<path d="M75.9894 164.245C76.0541 114.908 76.1189 65.5702 76.1831 16.2336C76.1881 12.2869 76.193 8.34021 76.1985 4.39264C76.2031 1.17043 71.2016 1.18052 71.1983 4.41043C71.1336 53.7479 71.0689 103.085 71.0046 152.422C70.9997 156.369 70.9947 160.315 70.9892 164.263C71.0002 167.494 75.9965 167.489 75.9992 164.254L75.9894 164.245Z" fill="black"/>
</svg>
