<svg width="452" height="452" viewBox="0 0 452 452" fill="none" xmlns="http://www.w3.org/2000/svg">
<path d="M4 225.66C4 103.099 103.168 3.93018 225.73 3.93018C348.292 3.93018 447.46 103.101 447.46 225.66C447.46 348.22 348.29 447.39 225.73 447.39C103.17 447.39 4 348.222 4 225.66Z" stroke="black" stroke-width="3"/>
<path d="M3.99988 225.657L3.99934 225.831C3.9595 226.249 3.78482 226.523 3.57054 226.707C3.30638 226.933 2.9214 227.07 2.50037 227.07C2.07924 227.07 1.69671 226.933 1.43596 226.708C1.19628 226.502 1.00625 226.179 1.00787 225.658C1.00798 225.622 1.00811 225.585 1.00824 225.548C1.0308 225.087 1.21128 224.793 1.43447 224.601C1.6952 224.376 2.07751 224.239 2.49827 224.239C2.91894 224.239 3.30378 224.376 3.568 224.602C3.78843 224.792 3.96716 225.076 4.00036 225.516C4.00018 225.563 4.00002 225.61 3.99988 225.657ZM1.03853 222.527C1.55022 191.488 8.23957 160.656 21.1869 132.412L21.187 132.412C58.2822 51.4523 142.126 -1.48504 231.34 0.994665L231.368 -0.00491332L231.34 0.994666C319.948 3.4538 401.071 59.0223 434.18 141.498C467.709 224.997 447.493 323.614 382.821 386.428L383.518 387.145L382.821 386.428C351.584 416.771 311.745 438.099 268.891 446.244C224.807 454.623 178.605 450.072 137.323 432.334C97.659 415.292 63.1128 386.852 39.0921 350.941C14.8879 314.759 1.76575 272.257 1.0369 228.781C1.50611 228.977 2.00978 229.07 2.50037 229.07C3.0152 229.07 3.54441 228.968 4.03346 228.751C4.18715 239.118 4.96425 249.504 6.58817 259.763L7.57587 259.607L6.5882 259.764C20.8822 349.947 91.0088 424.643 180.847 442.857C226.422 452.098 274.897 447.136 317.283 427.711C357.704 409.186 392.403 378.796 415.402 340.639C463.418 260.982 456.497 156.093 396.702 84.3727C368.109 50.0722 329.55 24.4062 286.444 12.3281C241.732 -0.200784 193.321 1.26271 149.649 17.2933C107.683 32.6967 70.496 60.8261 44.736 97.4447L45.5539 98.0201L44.736 97.4447C18.9055 134.166 4.78568 177.725 4.03075 222.557C3.54199 222.341 3.01309 222.239 2.49847 222.239C2.00907 222.239 1.5067 222.331 1.03853 222.527Z" fill="black" stroke="black" stroke-width="2"/>
<path d="M220.729 409.73V438.26C220.729 444.708 230.729 444.708 230.729 438.26V409.73C230.729 403.28 220.729 403.28 220.729 409.73Z" fill="black"/>
<path d="M130.22 382.82C125.184 390.976 120.147 399.133 115.111 407.29C111.713 412.793 120.365 417.811 123.746 412.337C128.782 404.181 133.819 396.024 138.855 387.867C142.255 382.357 133.605 377.347 130.225 382.817L130.22 382.82Z" fill="black"/>
<path d="M63.7989 312.89L39.0489 327.638C33.5159 330.935 38.5429 339.582 44.0959 336.273L68.8459 321.525C74.3789 318.225 69.3529 309.575 63.7989 312.885V312.89Z" fill="black"/>
<path d="M41.2247 220.66H13.1297C6.68072 220.66 6.68072 230.66 13.1297 230.66H41.2247C47.6727 230.66 47.6727 220.66 41.2247 220.66Z" fill="black"/>
<path d="M69.2069 129C60.8369 124.349 52.4669 119.699 44.0969 115.048C38.4549 111.913 33.4129 120.551 39.0499 123.683C47.4199 128.334 55.7899 132.984 64.1599 137.635C69.8009 140.765 74.8429 132.135 69.2069 129.005V129Z" fill="black"/>
<path d="M137.419 63.1918C132.862 55.1208 128.305 47.0508 123.748 38.9808C120.578 33.3668 111.938 38.4048 115.113 44.0278C119.67 52.0988 124.227 60.1688 128.784 68.2388C131.944 73.8528 140.584 68.8138 137.414 63.1918H137.419Z" fill="black"/>
<path d="M230.729 41.2239V13.0609C230.729 6.61187 220.729 6.61187 220.729 13.0609V41.2239C220.729 47.6719 230.729 47.6719 230.729 41.2239Z" fill="black"/>
<path d="M322.85 69.0347C327.348 60.6987 331.846 52.3627 336.344 44.0267C339.406 38.3527 330.772 33.3037 327.709 38.9797C323.211 47.3157 318.713 55.6517 314.215 63.9877C311.165 69.6627 319.795 74.7107 322.855 69.0347H322.85Z" fill="black"/>
<path d="M387.66 138.43C395.91 133.513 404.16 128.597 412.41 123.681C417.942 120.384 412.917 111.737 407.363 115.046C399.113 119.963 390.863 124.879 382.613 129.795C377.083 133.095 382.103 141.745 387.663 138.435L387.66 138.43Z" fill="black"/>
<path d="M409.73 230.66H438.328C444.776 230.66 444.776 220.66 438.328 220.66H409.73C403.28 220.66 403.28 230.66 409.73 230.66Z" fill="black"/>
<path d="M382.97 322.35C391.1 326.994 399.23 331.636 407.36 336.28C412.968 339.483 418.005 330.842 412.407 327.645C404.277 323.001 396.147 318.359 388.017 313.715C382.407 310.515 377.367 319.155 382.967 322.355L382.97 322.35Z" fill="black"/>
<path d="M313.5 387.05C318.237 395.48 322.974 403.909 327.711 412.338C330.87 417.959 339.509 412.919 336.346 407.291C331.609 398.861 326.872 390.433 322.135 382.003C318.985 376.383 310.345 381.423 313.505 387.053L313.5 387.05Z" fill="black"/>
</svg>
